name Walk3.mot
datacolumns 19
datarows 12
range 1.01500000 1.02600000
endheader

                time	   L_ground_force_vx	   L_ground_force_vy	   L_ground_force_vz	   L_ground_force_px	   L_ground_force_py	   L_ground_force_pz	   R_ground_force_vx	   R_ground_force_vy	   R_ground_force_vz	   R_ground_force_px	   R_ground_force_py	   R_ground_force_pz	   L_ground_torque_x	   L_ground_torque_y	   L_ground_torque_z	   R_ground_torque_x	   R_ground_torque_y	   R_ground_torque_z	
          1.01500000	         44.16345360	        495.94093805	         39.04859046	         -0.35875214	          0.00000000	         -0.04994568	          0.00000000	          0.00000000	          0.00000000	          0.00000000	          0.00000000	          0.00000000	          0.00000000	         -0.06257859	          0.00000000	          0.00000000	          0.00000000	          0.00000000	
          1.01600000	         44.87815845	        499.09960682	         39.28711155	         -0.35870816	          0.00000000	         -0.05009259	          0.00000000	          0.00000000	          0.00000000	          0.00000000	          0.00000000	          0.00000000	          0.00000000	          0.00438251	          0.00000000	          0.00000000	          0.00000000	          0.00000000	
          1.01700000	         45.57391369	        502.23388599	         39.61714780	         -0.35869235	          0.00000000	         -0.05008928	          0.00000000	          0.00000000	          0.00000000	          0.00000000	          0.00000000	          0.00000000	          0.00000000	          0.02122808	          0.00000000	          0.00000000	          0.00000000	          0.00000000	
          1.01800000	         46.31547820	        505.33291156	         40.02138177	         -0.35866280	          0.00000000	         -0.04991162	          0.00000000	          0.00000000	          0.00000000	          0.00000000	          0.00000000	          0.00000000	          0.00000000	         -0.03351006	          0.00000000	          0.00000000	          0.00000000	          0.00000000	
          1.01900000	         47.13069969	        508.36934860	         40.42409238	         -0.35858496	          0.00000000	         -0.04964673	          0.00000000	          0.00000000	          0.00000000	          0.00000000	          0.00000000	          0.00000000	          0.00000000	         -0.13641989	          0.00000000	          0.00000000	          0.00000000	          0.00000000	
          1.02000000	         47.99877230	        511.32867337	         40.74584534	         -0.35845620	          0.00000000	         -0.04944209	          0.00000000	          0.00000000	          0.00000000	          0.00000000	          0.00000000	          0.00000000	          0.00000000	         -0.23616191	          0.00000000	          0.00000000	          0.00000000	          0.00000000	
          1.02100000	         48.88283659	        514.22222014	         40.95205200	         -0.35830859	          0.00000000	         -0.04940016	          0.00000000	          0.00000000	          0.00000000	          0.00000000	          0.00000000	          0.00000000	          0.00000000	         -0.29178281	          0.00000000	          0.00000000	          0.00000000	          0.00000000	
          1.02200000	         49.75195405	        517.06274467	         41.06027192	         -0.35817467	          0.00000000	         -0.04951282	          0.00000000	          0.00000000	          0.00000000	          0.00000000	          0.00000000	          0.00000000	          0.00000000	         -0.29374824	          0.00000000	          0.00000000	          0.00000000	          0.00000000	
          1.02300000	         50.58659180	        519.84623450	         41.12203161	         -0.35806445	          0.00000000	         -0.04968197	          0.00000000	          0.00000000	          0.00000000	          0.00000000	          0.00000000	          0.00000000	          0.00000000	         -0.25904350	          0.00000000	          0.00000000	          0.00000000	          0.00000000	
          1.02400000	         51.38528406	        522.55849302	         41.18753324	         -0.35797845	          0.00000000	         -0.04979403	          0.00000000	          0.00000000	          0.00000000	          0.00000000	          0.00000000	          0.00000000	          0.00000000	         -0.21344917	          0.00000000	          0.00000000	          0.00000000	          0.00000000	
          1.02500000	         52.15810078	        525.19791000	         41.27643171	         -0.35792108	          0.00000000	         -0.04979824	          0.00000000	          0.00000000	          0.00000000	          0.00000000	          0.00000000	          0.00000000	          0.00000000	         -0.17314146	          0.00000000	          0.00000000	          0.00000000	          0.00000000	
          1.02600000	         52.91773136	        527.78876963	         41.39011471	         -0.35789343	          0.00000000	         -0.04972213	          0.00000000	          0.00000000	          0.00000000	          0.00000000	          0.00000000	          0.00000000	          0.00000000	         -0.14255929	          0.00000000	          0.00000000	          0.00000000	          0.00000000	
